<?xml version="1.0" standalone="no"?>
<!DOCTYPE svg PUBLIC "-//W3C//DTD SVG 20010904//EN"
 "http://www.w3.org/TR/2001/REC-SVG-20010904/DTD/svg10.dtd">
<svg version="1.0" xmlns="http://www.w3.org/2000/svg"
 width="1089.000000pt" height="1280.000000pt" viewBox="0 0 1089.000000 1280.000000"
 preserveAspectRatio="xMidYMid meet">
<g transform="translate(0.000000,1280.000000) scale(0.100000,-0.100000)"
fill="#000000" stroke="none">
<path d="M8883 12780 c-44 -27 -68 -62 -223 -333 -89 -157 -141 -237 -151
-237 -9 0 -48 18 -85 40 -90 53 -139 54 -189 8 -43 -41 -3724 -6416 -3732
-6463 -11 -65 18 -99 149 -176 69 -41 118 -76 115 -82 -3 -7 -93 -165 -201
-352 -169 -292 -196 -345 -196 -380 0 -78 11 -87 470 -351 459 -264 467 -267
535 -226 22 14 81 108 230 365 110 191 204 347 209 347 5 0 59 -28 120 -62
125 -71 172 -80 223 -42 19 14 274 445 771 1305 408 706 747 1286 752 1287 11
4 127 -79 225 -162 548 -461 925 -1079 1080 -1771 60 -270 69 -363 69 -710 0
-282 -2 -337 -22 -465 -108 -697 -408 -1300 -891 -1794 -150 -152 -276 -262
-421 -366 -519 -372 -1088 -572 -1730 -610 -102 -6 -747 -10 -1554 -10 l-1378
0 -39 -39 -39 -39 0 -676 c0 -755 -4 -714 70 -761 l40 -25 3840 0 3840 0 39
24 c21 14 48 41 60 61 21 36 21 39 21 691 0 718 3 685 -60 738 l-32 26 -716 0
c-439 0 -723 4 -732 10 -18 12 -22 6 104 151 969 1118 1355 2649 1035 4109
-256 1166 -921 2166 -1906 2867 -73 52 -133 96 -133 99 0 2 325 565 722 1252
671 1159 722 1250 723 1294 0 61 -24 92 -106 141 -35 20 -65 41 -67 45 -1 5
67 131 153 280 137 241 155 277 155 317 0 38 -6 51 -32 79 -19 19 -234 149
-498 301 -256 147 -483 278 -506 291 -50 29 -69 30 -111 4z"/>
<path d="M1150 12005 c-516 -87 -941 -463 -1084 -959 -31 -107 -66 -309 -66
-382 0 -78 44 -324 75 -419 55 -168 161 -354 277 -488 30 -35 39 -52 33 -61
-6 -7 -44 -57 -87 -111 -159 -203 -244 -419 -282 -717 -14 -106 -14 -130 0
-235 35 -274 97 -447 235 -652 125 -187 311 -348 524 -452 217 -106 403 -145
650 -135 286 10 481 76 754 256 76 49 143 90 150 90 7 0 72 -39 144 -87 200
-131 348 -196 548 -239 118 -26 408 -26 528 0 266 57 479 168 668 349 220 210
357 467 408 761 20 116 20 345 -1 461 -39 225 -148 463 -293 635 -25 30 -52
62 -59 71 -10 14 -4 27 46 85 216 258 322 549 322 884 0 383 -138 710 -413
977 -261 253 -580 383 -939 383 -333 0 -606 -96 -871 -307 l-90 -72 -36 30
c-220 185 -447 293 -701 334 -114 18 -334 18 -440 0z m1400 -1386 c434 -103
741 -513 717 -959 -22 -405 -296 -748 -687 -860 -96 -28 -311 -38 -413 -20
-361 64 -645 324 -749 686 -20 68 -23 101 -22 244 0 150 3 173 27 253 54 176
135 306 269 433 99 93 203 155 336 200 168 57 348 65 522 23z"/>
<path d="M2995 4889 c-17 -5 -42 -21 -57 -36 -29 -31 -313 -517 -336 -575 -19
-48 -9 -97 26 -131 15 -15 730 -433 1587 -929 l1560 -903 58 0 c53 0 61 3 86
30 28 32 312 521 337 581 19 46 9 98 -25 130 -20 20 -2246 1313 -3001 1744
-165 94 -188 103 -235 89z"/>
</g>
</svg>
